<?xml version="1.0" encoding="iso-8859-1"?>
<!-- Generator: Adobe Illustrator 16.0.0, SVG Export Plug-In . SVG Version: 6.00 Build 0)  -->
<!DOCTYPE svg PUBLIC "-//W3C//DTD SVG 1.1//EN" "http://www.w3.org/Graphics/SVG/1.1/DTD/svg11.dtd">
<svg version="1.1" id="Capa_1" xmlns="http://www.w3.org/2000/svg" xmlns:xlink="http://www.w3.org/1999/xlink" x="0px" y="0px"
	 width="388.004px" height="388.004px" viewBox="0 0 388.004 388.004" style="enable-background:new 0 0 388.004 388.004;"
	 xml:space="preserve">
<g>
	<g>
		<g>
			<path d="M336.864,281.809L336.864,281.809c-6.732,0-14.076,0.611-20.81,1.225c0-24.479,1.226-64.872-18.972-79.561
				c-4.896-3.672-10.404-4.896-16.523-5.509v-0.611c0-24.479,1.836-63.035-26.929-70.379c-0.611,0-0.611,0-1.224,0
				c1.224-15.3,3.672-39.168-4.896-50.184c-3.672-4.896-10.402-7.344-17.748-7.344c17.137-14.076,23.868-48.348,7.346-63.036
				c-18.36-15.912-37.944,0.612-44.065,18.972c-2.448-7.344-7.344-14.076-14.688-17.136c-12.24-5.508-27.54,2.448-34.884,12.852
				c-7.956,11.628-4.896,26.316,3.672,36.72c5.508,6.732,12.852,11.016,20.808,13.464c-11.016,0.612-21.42,3.672-28.152,10.404
				c-11.016,11.016-6.12,33.66-4.896,47.736v0.612c-5.508,1.224-11.016,2.448-17.136,3.672c-1.836,0-3.672,0.612-4.896,1.224
				c-0.612,0-0.612,0-1.224,0.612c-0.612,0-0.612,0.612-0.612,1.224c-10.404,11.628-6.732,51.408-6.12,59.362
				c0,0.612,0.612,1.836,0.612,1.836c-7.344,2.448-14.688,5.509-20.196,10.404c-21.42,18.359-17.748,55.08-14.688,80.172
				c-6.732,0-13.464,0-20.196,0c-13.464,0-12.852,19.584,0,20.809c44.064,3.061,88.74,3.672,133.416,3.061
				c-1.224,7.956-1.224,15.912-1.836,23.868c0,8.567-1.224,17.748,0,26.315c-20.808,0-41.004,0.611-59.364,6.119
				c-6.732,1.837-6.732,11.628,0,13.465c35.496,9.792,79.561,4.283,116.281,4.283c14.075,0,14.075-22.031,0-22.031
				c-11.629,0-23.868-0.611-36.108-1.225c1.225-8.567,0.612-18.359,0.612-26.928c0-7.956,0-16.524-0.612-24.48
				c44.676-1.224,89.964-4.283,134.028-7.344C351.552,302.616,350.328,283.032,336.864,281.809z M149.592,40.682
				c-2.448-10.404,8.568-28.764,21.42-26.928c15.3,1.836,16.524,17.136,20.196,28.764c0.612,2.448,4.897,2.448,4.897-0.612
				c0-0.612,0-1.224,0-1.836l0,0c1.836-8.568,4.283-18.36,11.017-24.48c9.18-8.568,23.868-7.344,28.764,5.508
				c6.732,17.748-7.344,30.6-14.075,45.288c0,0.612-0.611,1.224,0,1.836c-9.792,0.612-20.195,2.448-26.929,2.448
				c-2.448,0-5.508,0-8.568,0C172.236,63.938,153.264,57.817,149.592,40.682z M147.756,84.133c11.628-9.792,36.72-6.12,51.408-6.732
				c14.076-0.612,29.376-4.284,39.168,5.508c3.061,3.06,4.896,7.344,6.12,12.24l0,0c-3.062,5.508-10.404,7.344-12.24,0
				c-1.224-4.896-7.956-3.06-7.956,1.224c-0.611,4.896-4.284,7.344-8.567,5.508c-3.672-1.224-4.896-3.06-6.119-6.732
				c-0.612-1.836-3.062-1.836-3.673-0.612c-1.225-0.612-3.061-0.612-4.283,1.224c-1.836,3.06-3.062,6.12-6.732,6.732
				c-4.896,0.612-7.344-2.448-7.956-6.732c-0.612-3.672-6.732-3.672-7.344,0c-0.612,1.836-0.612,3.672-1.836,5.508
				c-0.612,1.224-1.224,2.448-2.448,3.06c-2.448,3.672-4.896,1.836-7.956-3.672c0.612-2.448-1.836-3.672-3.672-3.06
				c0-0.612,0-1.224-0.612-1.224c-1.224-2.448-4.896-1.836-5.508,0.612c-1.224,2.448-1.224,5.508-3.06,7.956
				c-2.448,2.448-5.508,3.06-8.568,2.448c-2.448-0.612-3.672-2.448-5.508-4.284C140.412,95.149,142.86,88.417,147.756,84.133z
				 M150.204,114.122c4.284,0,9.18-3.06,11.628-7.344c1.224,3.06,4.284,5.508,8.568,6.12c5.508,0.612,9.792-2.448,12.24-6.732
				c3.06,3.06,6.732,4.896,11.016,4.896c4.896,0,10.405-3.06,12.241-7.344c4.283,7.956,16.523,8.568,22.645,1.836
				c4.896,4.284,12.24,4.896,17.136,2.448c0,5.508,0,11.628-0.611,16.524c-18.359-3.06-38.557-0.612-56.305,0
				c-16.524,0.612-33.048,1.224-48.96,3.672c0-4.896-0.612-11.628-0.612-17.748C142.248,112.897,145.919,114.122,150.204,114.122z
				 M122.052,136.766c28.152-0.612,56.304-4.284,85.068-4.284c12.852,0,28.151-1.836,41.004,2.448c0,0,0,0,0.612,0
				c7.344,2.448,14.688,7.344,19.584,15.3c0.61,1.224,1.836,3.06,2.447,4.896c0,0-0.611,0-0.611,0.612
				c-1.226,1.224-6.732,7.344-7.345,7.344c-7.345,2.448-13.465-1.224-14.688-9.18c-1.225-6.12-9.18-3.672-9.792,1.224
				c-7.956,10.404-13.464,9.792-16.523-1.836c0-2.448-3.061-3.672-4.896-1.836c-1.836,0-3.061,1.224-3.672,2.448
				c-1.226,3.06-1.226,5.508-3.672,7.956c-4.284,4.896-13.465,4.284-14.688-4.896c-0.612-4.896-8.568-6.732-9.18-1.224
				c-0.612,3.06-1.224,6.12-3.672,8.568c-4.896,3.672-14.076,1.836-13.464-6.12c0-1.836-1.836-3.06-3.06-2.448
				c-1.836-1.224-4.896-0.612-5.508,1.836c-1.224,4.284-2.448,7.344-6.732,9.18c-5.508,2.448-11.628-0.612-12.852-7.956
				c-0.612-4.284-6.732-6.12-8.568-1.224c-0.612,3.06-1.836,5.508-3.672,7.344c-7.344,3.672-11.628,2.448-12.852-3.672
				c0-0.612-0.612-1.224-0.612-1.224C113.484,150.841,114.708,140.438,122.052,136.766z M113.484,173.485
				c1.836,1.224,4.284,2.448,7.344,2.448c6.12,0.612,11.016-2.448,14.076-7.344c3.672,4.896,8.568,7.956,15.3,7.344
				c5.508-0.612,10.404-3.672,12.852-7.956c1.836,3.672,5.508,6.732,10.404,7.344c6.732,1.224,12.24-1.836,15.912-6.732
				c3.672,4.284,9.18,7.344,15.3,6.12c5.508-0.612,11.017-4.284,13.464-9.18c5.509,7.344,16.524,7.956,23.868,1.224
				c3.672,4.896,9.18,7.956,15.3,7.956c5.509,0,11.018-2.448,14.688-6.732c1.224,9.792,0.611,21.42,0.611,29.374l0,0
				c-2.447,0-4.896,0-7.345-0.611c-25.092-1.225-49.571-2.447-74.664-2.447c-21.42-0.611-52.02-4.284-77.112,1.224l0,0
				C113.484,188.173,112.872,180.83,113.484,173.485z M110.424,207.146c26.928-6.732,58.752-3.673,86.292-3.062
				c29.376,0.612,64.872-4.283,89.353,12.853c14.076,9.793,16.523,17.748,17.748,29.987c-0.611,0-1.225,0.612-1.836,1.226
				c-6.119,6.119-8.567-1.226-10.403-6.732c-1.836-4.896-9.181-5.508-10.404,0c-0.611,3.061-1.224,5.509-3.672,7.956
				c-3.672,3.672-9.792,1.836-9.792-4.284c0-3.06-3.061-4.283-5.508-3.06c-0.612-1.225-1.836-1.836-3.062-2.448
				c-1.836-1.224-4.283-0.611-4.896,1.225c-0.612,0.611-1.225,3.672-1.836,4.283c-6.12,8.568-13.464,6.732-17.137-3.06
				c-2.447-6.12-10.403-4.896-11.017,1.224c-1.224,13.465-17.136,10.404-20.195,0.612c-0.611-2.448-2.447-3.061-4.283-2.448
				c-1.836-3.06-6.122-3.672-7.958,0c-1.224,2.448-1.836,4.284-3.672,6.12c-2.448,3.672-4.896,3.672-7.956,1.225
				c-4.284,0-6.12-1.837-6.12-5.509c-1.224-5.508-9.18-4.896-10.404,0c-3.672,13.465-18.972,13.465-25.704,1.836
				c-0.612-0.611-1.224-1.224-1.836-1.224c-1.836-1.225-3.672-0.612-4.896,1.224c-2.448,4.284-1.836,3.673-7.956,6.732
				c-4.284,4.896-7.344,4.284-8.568-0.612c-1.836-1.836-2.448-3.06-2.448-5.508l0,0l0,0c0-0.612,0-0.612,0-1.225
				c0.612-4.896-6.12-4.896-7.956-1.225c-1.836,3.672-4.284,8.568-7.344,11.017c-6.12,4.896-17.136,4.896-19.584-4.283
				C80.436,230.4,87.78,212.652,110.424,207.146z M77.988,288.54c0-9.18-0.612-18.972,0-29.376c3.06,3.061,7.344,5.508,12.24,5.508
				c7.344,0,13.464-3.672,17.136-9.18c2.448,4.896,6.732,8.567,12.852,9.18c7.344,0.612,15.3-3.672,17.748-10.403
				c7.956,9.792,22.032,9.181,30.6,1.225c3.06,4.284,8.568,7.344,14.688,6.731c6.12-0.611,11.628-4.283,14.689-9.181
				c6.12,12.854,23.257,12.24,31.823,2.448c5.509,6.731,13.465,10.403,22.646,6.731c3.06-1.225,6.73-4.283,8.567-7.956
				c2.447,4.284,7.345,7.345,12.853,7.345c4.896,0,9.18-2.448,12.24-6.12c2.446,3.061,5.508,5.508,9.792,6.12
				c3.06,0.611,6.73,0,9.18-1.836c0,0,0,0,0,0.611c0.612,7.956,1.836,15.3,3.061,23.256C231.6,288.54,154.488,288.54,77.988,288.54z
				"/>
		</g>
	</g>
</g>
<g>
</g>
<g>
</g>
<g>
</g>
<g>
</g>
<g>
</g>
<g>
</g>
<g>
</g>
<g>
</g>
<g>
</g>
<g>
</g>
<g>
</g>
<g>
</g>
<g>
</g>
<g>
</g>
<g>
</g>
</svg>
